<?xml version="1.0" encoding="UTF-8" standalone="no"?>
<!-- Created with Inkscape (http://www.inkscape.org/) -->

<svg
   version="1.1"
   id="svg1"
   width="257.71265"
   height="249.37251"
   viewBox="0 0 257.71265 249.37251"
   sodipodi:docname="logo.svg"
   inkscape:version="1.3 (0e150ed6c4, 2023-07-21)"
   xmlns:inkscape="http://www.inkscape.org/namespaces/inkscape"
   xmlns:sodipodi="http://sodipodi.sourceforge.net/DTD/sodipodi-0.dtd"
   xmlns="http://www.w3.org/2000/svg"
   xmlns:svg="http://www.w3.org/2000/svg">
  <defs
     id="defs1" />
  <sodipodi:namedview
     id="namedview1"
     pagecolor="#ffffff"
     bordercolor="#000000"
     borderopacity="0.25"
     inkscape:showpageshadow="2"
     inkscape:pageopacity="0.0"
     inkscape:pagecheckerboard="0"
     inkscape:deskcolor="#d1d1d1"
     showguides="false"
     inkscape:zoom="1.3491189"
     inkscape:cx="186.04735"
     inkscape:cy="130.82613"
     inkscape:window-width="1920"
     inkscape:window-height="986"
     inkscape:window-x="-11"
     inkscape:window-y="-11"
     inkscape:window-maximized="1"
     inkscape:current-layer="g1" />
  <g
     inkscape:groupmode="layer"
     inkscape:label="Image"
     id="g1"
     transform="translate(-129.87016,-58.243466)">
    <path
       style="display:none;fill:#000000;fill-opacity:1"
       d="m 323,305.238 c -5.775,-1.38013 -12.80729,-3.13065 -15.62731,-3.89005 l -5.12731,-1.38074 -0.42478,-8.88456 c -0.3557,-7.43983 -0.94034,-9.93183 -3.5953,-15.32481 -3.86091,-7.84263 -9.46735,-13.57147 -17.59796,-17.98214 -5.95612,-3.23107 -6.44869,-3.32242 -17.62734,-3.26924 -11.14459,0.053 -11.68543,0.15845 -17.5,3.41145 -7.96264,4.45475 -13.54978,10.17094 -17.38235,17.78384 -1.73054,3.4375 -3.76672,6.25 -4.52484,6.25 -1.42611,0 -25.15007,-5.27024 -31.94187,-7.09583 -4.51812,-1.21444 -4.57226,0.24404 0.83167,-22.40417 1.83724,-7.7 4.25253,-18.05 5.36732,-23 4.03319,-17.90862 10.21039,-45.08844 11.13631,-49 0.52077,-2.2 3.23809,-14.125 6.03849,-26.5 2.80039,-12.375 6.39417,-28.125 7.98617,-35 1.592,-6.875 5.36217,-23.248853 8.37816,-36.38634 3.01599,-13.137487 5.84977,-24.236782 6.29728,-24.665099 0.75868,-0.726135 12.00498,1.579792 20.56366,4.216347 3.52072,1.084579 3.75,1.401259 3.75,5.179427 0,8.309064 7.60696,17.655665 14.36949,17.655665 3.64934,0 6.63051,1.672321 6.63051,3.719459 0,3.549316 4.35821,10.489211 8.17219,13.013191 5.29422,3.50355 13.63304,3.62885 19.56658,0.29401 4.02346,-2.26131 4.18871,-2.27284 8.40383,-0.58628 6.91148,2.76543 15.56921,0.7569 21.25774,-4.931626 1.95253,-1.952529 3.12711,-2.353263 5.50416,-1.877855 4.56866,0.913733 7.76878,-0.288544 12.58532,-4.728276 l 4.3716,-4.029604 5.31929,1.058959 c 10.61281,2.112788 17.52613,3.768804 18.66065,4.469975 1.70988,1.056766 1.43093,4.621078 -1.20656,15.416827 -1.30086,5.32467 -3.59862,15.08122 -5.10612,21.68122 -3.53248,15.46555 -6.8858,30.17902 -8.88841,39 -4.77437,21.02976 -13.78427,60.54326 -14.59333,64 -3.1677,13.53405 -7.31204,31.63282 -9.61735,42 -2.29218,10.30815 -5.74392,25.51749 -6.92192,30.5 -0.19506,0.825 -0.38908,2.0625 -0.43116,2.75 -0.11193,1.82869 -5.08236,1.40264 -17.07651,-1.46375 z m 11.87597,-13.03625 c 1.43582,-6.91324 2.37416,-11.05742 5.03794,-22.25 1.11263,-4.675 3.59746,-15.475 5.52184,-24 8.01993,-35.52814 12.6159,-55.73624 13.53223,-59.5 0.53561,-2.2 2.58819,-11.2 4.56128,-20 1.9731,-8.8 4.21134,-18.7 4.97387,-22 0.76254,-3.3 2.78609,-12.075 4.49679,-19.5 1.7107,-7.425 3.7718,-16.33727 4.58022,-19.80504 1.61199,-6.914737 1.33499,-8.19496 -1.77314,-8.19496 -1.14123,0 -3.82459,-0.524202 -5.96303,-1.164894 -3.4805,-1.042784 -4.08698,-0.951392 -5.78559,0.871861 -2.68983,2.887193 -10.3478,6.394493 -15.32538,7.018943 -2.32815,0.29207 -5.133,1.33009 -6.233,2.30671 -4.85217,4.30795 -17.18642,6.93344 -22.88755,4.87188 -2.70015,-0.97638 -4.19389,-0.87211 -8.63427,0.60275 -7.32641,2.43344 -11.6668,2.62105 -16.97818,0.73386 -8.0083,-2.84543 -14.37944,-8.43182 -17.54864,-15.387105 -1.17589,-2.580675 -2.47354,-3.808442 -4.44113,-4.20196 -7.01939,-1.403878 -15.01439,-9.918384 -17.28966,-18.413127 -0.98079,-3.661782 -1.63914,-4.399383 -4.68094,-5.244423 -5.6329,-1.564871 -6.94281,-1.262462 -7.6041,1.755505 -0.33142,1.5125 -0.77848,3.319304 -0.99347,4.015119 -0.21499,0.695816 -2.21921,9.470816 -4.45382,19.5 -2.23461,10.029181 -5.19117,23.184881 -6.57013,29.234881 -1.37897,6.05 -2.91263,12.8 -3.40814,15 -0.49551,2.2 -1.80822,7.825 -2.91714,12.5 -1.10892,4.675 -5.6545,24.475 -10.10129,44 -4.44679,19.525 -8.70825,38.2 -9.4699,41.5 -4.94586,21.42885 -6.82395,30.53102 -6.38928,30.96569 0.27336,0.27336 5.14034,1.49625 10.81551,2.71752 l 10.31849,2.2205 2.36185,-2.95185 c 1.29902,-1.62352 2.36409,-3.30282 2.36682,-3.73178 0.007,-1.07915 8.82672,-9.74539 12.62011,-12.40031 6.53508,-4.57379 18.37805,-8.32991 26.18365,-8.30442 5.9009,0.0193 19.26119,3.3345 22.93001,5.68986 15.05179,9.66315 22.59408,21.21099 24.75829,37.90689 l 0.66265,5.1121 8.67513,2.02353 c 13.79658,3.21815 13.64915,3.25241 15.0511,-3.49773 z M 322,289.21975 c -3.77687,-0.69439 -4.67157,-1.85518 -5.37272,-6.97062 -1.08844,-7.94105 -7.97653,-20.68367 -14.95047,-27.65761 -6.50452,-6.50452 -10.12163,-8.75385 -21.21132,-13.19042 -5.96393,-2.38595 -8.08779,-2.70863 -17.37984,-2.6406 -8.79298,0.0644 -11.76641,0.51515 -17.55798,2.66177 -11.81126,4.3778 -19.1431,9.92419 -28.20836,21.33902 -1.66631,2.0982 -2.22951,2.22071 -6.1546,1.3388 -2.37624,-0.5339 -4.53114,-1.18144 -4.78866,-1.43896 -0.41095,-0.41095 1.72702,-10.30264 9.77147,-45.20938 2.12409,-9.21693 4.06423,-17.77456 7.82166,-34.5 1.17382,-5.225 2.76255,-12.2 3.53051,-15.5 2.10602,-9.0497 5.10955,-22.06709 7.1211,-30.86306 l 1.7982,-7.86306 5.54051,0.76031 c 11.05237,1.51669 11.50296,1.4153 11.84376,-2.66507 l 0.30327,-3.63087 -6.53532,-1.29902 c -3.59442,-0.71446 -7.07168,-1.63051 -7.72724,-2.03566 -0.89407,-0.55257 -0.48632,-3.94369 1.63166,-13.57011 3.16515,-14.385878 6.23978,-26.382202 6.94155,-27.083972 0.25611,-0.256113 1.10769,1.045479 1.89239,2.892426 2.23985,5.271902 9.00328,12.194368 14.3702,14.708096 3.42258,1.603055 5.73359,3.60978 7.65533,6.64741 1.51401,2.39313 4.19548,5.79254 5.95882,7.55424 7.79904,7.79178 22.74563,11.02294 33.70608,7.28659 4.52194,-1.5415 6.52338,-1.70937 11.25488,-0.94399 6.7113,1.08564 15.37771,-0.84781 21.54303,-4.80618 2.03615,-1.30728 5.50209,-2.68439 7.70209,-3.06024 2.2,-0.37585 6.82136,-2.0645 10.26969,-3.75257 3.44834,-1.68807 6.56527,-2.77364 6.92653,-2.41238 0.36126,0.36126 -1.53172,10.36682 -4.20663,22.23458 l -4.86347,21.57775 -3.06306,-0.64826 c -6.93224,-1.46714 -14.84191,-2.58144 -15.27188,-2.15147 -0.25264,0.25263 -0.69294,2.20095 -0.97845,4.32958 l -0.51911,3.87025 7.35319,1.24121 c 10.66433,1.80013 10.51314,1.6171 8.54896,10.34925 -0.90736,4.03382 -3.21039,14.30922 -5.11785,22.83422 -1.90747,8.525 -4.16322,18.425 -5.01279,22 -0.84956,3.575 -4.04907,17.525 -7.11001,31 -3.06095,13.475 -6.93897,30.2375 -8.61783,37.25 -3.22946,13.48926 -2.94428,13.10146 -8.83729,12.018 z m 3.80836,-145.4843 c 0.26503,-3.19422 -0.0159,-3.78479 -2,-4.20384 -1.2696,-0.26814 -5.54719,-1.18331 -9.50577,-2.0337 -3.95857,-0.85039 -7.41117,-1.54616 -7.67244,-1.54616 -0.73526,0 -2.89385,7.06963 -2.33058,7.6329 1.02273,1.02274 15.31134,4.18635 18.20043,4.02973 2.70485,-0.14663 3.03034,-0.52826 3.30836,-3.87893 z m -35.4797,-7.08815 c 0.49268,-2.09245 0.68839,-4.01183 0.43493,-4.2653 -0.70278,-0.70277 -10.67155,-3.16571 -16.00207,-3.95354 -5.15081,-0.76128 -5.64386,-0.35653 -6.04815,4.9651 -0.20646,2.71761 0.0617,2.8818 8.28663,5.07346 11.2673,3.00234 12.22404,2.87172 13.32866,-1.81972 z m -113.9628,77.55445 c 0.36718,-26.8125 0.904,-56.625 1.19292,-66.25 0.58128,-19.36456 1.27028,-56.344045 1.37411,-73.75 l 0.0671,-11.25 h 11.5 c 11.22417,0 11.50284,0.05397 11.61842,2.25 0.0651,1.2375 0.0464,2.643822 -0.0417,3.125159 -0.0881,0.481338 0.60338,1.718838 1.53657,2.75 0.93319,1.031163 1.28946,1.889153 0.79172,1.906644 -0.49775,0.01749 -0.0315,0.692492 1.03614,1.5 1.0676,0.807509 1.54409,1.468197 1.05885,1.468197 -1.68784,0 3.0116,2.936604 4.75,2.968197 0.9625,0.01749 1.75,0.481803 1.75,1.031803 0,0.55 1.81412,1 4.03138,1 2.67605,0 4.22655,0.508577 4.61188,1.512735 1.5614,4.06894 -6.2779,6.083215 -11.17844,2.872255 -1.35565,-0.888255 -2.47913,-1.225755 -2.49662,-0.75 -0.0175,0.475756 -0.71187,-0.03499 -1.54305,-1.13499 -0.83118,-1.1 -1.82937,-2 -2.2182,-2 -0.38882,0 -0.59445,-0.3375 -0.45695,-0.75 0.1375,-0.4125 -0.29205,-0.6375 -0.95455,-0.5 -0.6625,0.1375 -1.225,-0.232143 -1.25,-0.821429 -0.025,-0.589285 -0.83295,-1.858928 -1.79545,-2.821428 -0.9625,-0.9625 -1.75,-2.167857 -1.75,-2.678572 0,-2.122493 -0.22904,-2.482817 -2.31574,-3.643136 -2.45954,-1.367637 -6.60211,-1.626106 -8.33617,-0.520122 -1.69626,1.081867 -2.20504,12.634813 -3.26923,74.234687 -1.98364,114.82127 -1.98522,114.87719 -3.30181,116.98539 -0.69198,1.10804 -2.11779,2.01461 -3.16847,2.01461 -1.86344,0 -1.89394,-1.19651 -1.24272,-48.75 z m -13.69097,40 c -0.24373,-0.4125 -1.85484,-7.95 -3.58025,-16.75 -1.7254,-8.8 -3.5659,-17.8 -4.08999,-20 -0.52409,-2.2 -3.23369,-15.925 -6.02132,-30.5 -2.78764,-14.575 -5.71389,-29.425 -6.50279,-33 -2.23416,-10.12445 -5.53655,-26.93659 -6.48215,-33 -0.47175,-3.025 -2.02657,-11.125 -3.45514,-18 -1.42857,-6.875 -2.69772,-13.116962 -2.82033,-13.871027 -0.26041,-1.601593 5.59944,-3.563978 13.64347,-4.569013 5.46351,-0.68262 5.48556,-0.674448 7.09016,2.627645 2.40318,4.945505 6.0877,7.151809 12.74801,7.633573 5.56119,0.40226 5.79544,0.53089 5.79544,3.182382 0,3.31185 -1.8112,3.9893 -8.67192,3.24359 -5.13209,-0.55782 -9.22139,-2.860167 -13.38661,-7.536892 -2.24954,-2.525796 -3.00433,-2.789091 -6.25,-2.180201 C 138.66116,91.862696 137,92.761288 137,93.478679 c 0,0.717391 2.64842,14.729811 5.88538,31.138711 3.23695,16.4089 6.20111,31.7445 6.58701,34.07912 0.3859,2.33462 1.11248,4.49868 1.61462,4.80902 0.50215,0.31034 0.91299,2.10575 0.91299,3.98979 0,3.11287 4.62519,28.21046 6.99492,37.95643 2.30822,9.493 8.00508,41.23366 8.00508,44.60117 0,2.43761 -0.5354,3.8903 -1.58179,4.29184 -2.01623,0.7737 -2.20757,0.76373 -2.74332,-0.14301 z m 27.83601,-53.25 c 0.58237,-17.35076 0.98881,-36.39129 1.33945,-62.75 L 192,126.95175 h 7.39301 c 8.14062,0 8.60699,-0.35663 8.60699,-6.58179 v -3.41821 h -8.12896 -8.12896 l 0.65552,-16.69323 c 0.36054,-9.181276 0.88969,-16.927391 1.17589,-17.213588 0.28619,-0.286198 2.15436,1.263256 4.15148,3.443229 1.99712,2.179974 3.6635,3.788592 3.70308,3.574707 0.0396,-0.213884 2.27711,0.615683 4.9723,1.843484 2.69518,1.227801 6.0606,2.44276 7.4787,2.69991 1.41809,0.25715 2.89096,0.97336 3.27304,1.591579 0.98596,1.59531 0.17601,9.825809 -1.09168,11.093499 -0.58323,0.58323 -1.06041,2.26873 -1.06041,3.74558 0,1.47684 -0.63297,4.87434 -1.40659,7.55 -0.77363,2.67565 -1.89989,7.33983 -2.5028,10.36483 -1.36884,6.8679 -1.4637,7.20668 -2.46887,8.81653 -0.4521,0.72409 -0.59903,1.53951 -0.3265,1.81204 0.27253,0.27254 -0.1491,3.0551 -0.93696,6.18347 -0.78786,3.12838 -1.68753,7.26296 -1.99927,9.18796 -0.31175,1.925 -1.00879,4.04279 -1.549,4.7062 -0.5402,0.6634 -0.71111,1.64481 -0.37979,2.1809 0.33132,0.53609 0.214,1.21475 -0.26071,1.50814 -0.47472,0.29339 -0.9028,1.92907 -0.9513,3.63485 -0.10012,3.52141 -1.16616,8.98759 -2.03847,10.45233 -0.32178,0.54033 -0.6962,1.66533 -0.83203,2.5 -0.64559,3.96705 -2.07892,9.77365 -2.63446,10.67254 -0.3402,0.55046 -0.89518,3.42032 -1.23329,6.37747 -0.33811,2.95715 -0.83493,5.7329 -1.10404,6.16834 -0.643,1.04039 -1.36143,4.3691 -1.99921,9.26297 -0.28411,2.18006 -0.95986,4.65506 -1.50166,5.5 -0.65453,1.02076 -0.77673,-4.67155 -0.36415,-16.96374 z m -28.35073,-8.25736 c -2.38691,-12.23345 -5.64941,-28.71098 -7.25,-36.61673 -3.85315,-19.03171 -3.87277,-18.71637 1.21507,-19.52995 5.86393,-0.93768 7.79706,-2.17708 7.16507,-4.59381 -0.6854,-2.62097 -4.08437,-3.42913 -8.86759,-2.10842 -2.09564,0.57863 -3.96756,0.89476 -4.15982,0.7025 -0.19226,-0.19226 -1.69212,-6.993 -3.33302,-15.11277 -2.7073,-13.39662 -3.04401,-17.83591 -1.12551,-14.83883 1.3351,2.08568 8.73647,5.0772 14.05151,5.6794 2.94573,0.33375 5.98323,1.12748 6.75,1.76384 1.16,0.96271 1.39412,10.03703 1.39412,54.03457 0,29.08266 -0.3375,52.87425 -0.75,52.8702 -0.4125,-0.004 -2.70292,-10.01655 -5.08983,-22.25 z"
       id="path1" />
    <path
       style="display:none;opacity:0;fill:#ff0000;fill-opacity:1;fill-rule:evenodd;stroke-width:0"
       d="m 348.28098,281.73403 c -0.28826,-0.103 -1.16974,-0.32958 -1.95883,-0.50351 -2.00684,-0.44233 -2.80199,-1.92967 -4.01715,-7.51417 -2.51984,-11.58036 -11.69475,-25.53086 -21.27851,-32.35409 -3.95327,-2.81456 -9.0034,-5.34269 -15.72375,-7.87144 -4.96546,-1.86841 -5.64114,-1.98569 -12.84106,-2.2288 -12.36939,-0.41766 -18.77959,0.8788 -28.5648,5.77719 -2.30615,1.15444 -5.247,2.82252 -6.53523,3.70683 -3.25998,2.23784 -10.06418,8.82873 -13.25765,12.84201 l -2.67368,3.36006 -2.65603,-0.30196 c -1.46082,-0.16607 -3.55586,-0.56374 -4.65566,-0.88371 -1.89296,-0.55073 -1.98156,-0.67081 -1.66096,-2.2511 1.75709,-8.66071 29.44941,-130.93232 29.83869,-131.74853 0.0252,-0.0529 2.40046,0.23731 5.27827,0.64496 7.05305,0.99911 10.42723,0.97858 11.29641,-0.0687 0.37899,-0.45666 0.79,-2.22558 0.91336,-3.93094 0.19951,-2.75823 0.11603,-3.10117 -0.75594,-3.10539 -2.11529,-0.0102 -12.51096,-2.65332 -13.21839,-3.36075 -0.65086,-0.65086 -0.63249,-1.39734 0.13875,-5.63701 1.12516,-6.18529 5.85797,-26.341938 7.23161,-30.798836 l 1.04008,-3.374661 1.91387,3.627768 c 2.5354,4.805896 8.48877,10.754306 13.96958,13.957954 4.62414,2.702904 5.75129,3.77681 9.32042,8.880232 4.96633,7.101223 11.98431,11.606803 20.79643,13.351413 5.62905,1.11443 12.92798,0.76853 18.1018,-0.85785 3.2979,-1.03669 4.33301,-1.11746 10.23701,-0.79877 8.80848,0.47547 13.02154,-0.36558 20.68636,-4.12962 3.17095,-1.55719 7.85078,-3.4528 10.39962,-4.21247 2.54883,-0.75967 6.74586,-2.310455 9.32672,-3.446186 4.33567,-1.907945 6.21784,-2.45473 6.21784,-1.806328 0,1.434784 -8.70844,42.077684 -9.12003,42.563804 -0.0495,0.0584 -3.14759,-0.46531 -6.88468,-1.1639 -3.7371,-0.69859 -7.89083,-1.27708 -9.23051,-1.28554 l -2.43579,-0.0154 -0.57793,3.31872 c -0.99085,5.68991 -1.45802,5.19662 6.14174,6.48531 7.72074,1.3092 9.43141,1.94476 9.863,3.66436 0.34073,1.35757 -1.76475,11.00798 -15.01466,68.81922 -15.35294,66.98709 -14.13247,62.55919 -17.29175,62.73502 -1.00894,0.0562 -2.0703,0.0178 -2.35857,-0.0852 z m 2.60662,-142.11562 c 0.63634,-0.63634 0.80863,-1.6468 0.69259,-4.06196 l -0.15446,-3.21492 -7.86187,-1.69379 c -4.32403,-0.93158 -8.77919,-1.75707 -9.90035,-1.83443 -2.00835,-0.13857 -2.05229,-0.10193 -2.9731,2.47997 -0.51404,1.44135 -0.9529,3.24339 -0.97524,4.00455 -0.038,1.2962 0.23065,1.45712 4.23838,2.53853 9.84165,2.65556 15.46841,3.24769 16.93405,1.78205 z m -35.5163,-7.89561 c 0.59278,-0.90469 0.92366,-2.43379 0.9293,-4.29456 l 0.009,-2.88963 -2.35857,-0.71338 c -3.97774,-1.20312 -14.30108,-3.26796 -16.36046,-3.27235 -2.1631,-0.005 -2.70908,0.62338 -3.30538,3.80195 -0.52822,2.81566 0.0192,4.34751 1.8204,5.09358 3.27998,1.35861 12.9855,3.6317 15.60583,3.65497 2.40635,0.0214 2.85154,-0.14655 3.66011,-1.38058 z"
       id="path2"
       transform="translate(-25.682119,7.3377483)" />
    <path
       style="display:none;opacity:0;fill:#ff0000;fill-opacity:1;fill-rule:evenodd;stroke-width:0"
       d="m 348.28098,281.73403 c -0.28826,-0.103 -1.16974,-0.32958 -1.95883,-0.50351 -2.00684,-0.44233 -2.80199,-1.92967 -4.01715,-7.51417 -2.51984,-11.58036 -11.69475,-25.53086 -21.27851,-32.35409 -3.95327,-2.81456 -9.0034,-5.34269 -15.72375,-7.87144 -4.96546,-1.86841 -5.64114,-1.98569 -12.84106,-2.2288 -12.36939,-0.41766 -18.77959,0.8788 -28.5648,5.77719 -2.30615,1.15444 -5.247,2.82252 -6.53523,3.70683 -3.25998,2.23784 -10.06418,8.82873 -13.25765,12.84201 l -2.67368,3.36006 -2.65603,-0.30196 c -1.46082,-0.16607 -3.55586,-0.56374 -4.65566,-0.88371 -1.89296,-0.55073 -1.98156,-0.67081 -1.66096,-2.2511 1.75709,-8.66071 29.44941,-130.93232 29.83869,-131.74853 0.0252,-0.0529 2.40046,0.23731 5.27827,0.64496 7.05305,0.99911 10.42723,0.97858 11.29641,-0.0687 0.37899,-0.45666 0.79,-2.22558 0.91336,-3.93094 0.19951,-2.75823 0.11603,-3.10117 -0.75594,-3.10539 -2.11529,-0.0102 -12.51096,-2.65332 -13.21839,-3.36075 -0.65086,-0.65086 -0.63249,-1.39734 0.13875,-5.63701 1.12516,-6.18529 5.85797,-26.341938 7.23161,-30.798836 l 1.04008,-3.374661 1.91387,3.627768 c 2.5354,4.805896 8.48877,10.754306 13.96958,13.957954 4.62414,2.702904 5.75129,3.77681 9.32042,8.880232 4.96633,7.101223 11.98431,11.606803 20.79643,13.351413 5.62905,1.11443 12.92798,0.76853 18.1018,-0.85785 3.2979,-1.03669 4.33301,-1.11746 10.23701,-0.79877 8.80848,0.47547 13.02154,-0.36558 20.68636,-4.12962 3.17095,-1.55719 7.85078,-3.4528 10.39962,-4.21247 2.54883,-0.75967 6.74586,-2.310455 9.32672,-3.446186 4.33567,-1.907945 6.21784,-2.45473 6.21784,-1.806328 0,1.434784 -8.70844,42.077684 -9.12003,42.563804 -0.0495,0.0584 -3.14759,-0.46531 -6.88468,-1.1639 -3.7371,-0.69859 -7.89083,-1.27708 -9.23051,-1.28554 l -2.43579,-0.0154 -0.57793,3.31872 c -0.99085,5.68991 -1.45802,5.19662 6.14174,6.48531 7.72074,1.3092 9.43141,1.94476 9.863,3.66436 0.34073,1.35757 -1.76475,11.00798 -15.01466,68.81922 -15.35294,66.98709 -14.13247,62.55919 -17.29175,62.73502 -1.00894,0.0562 -2.0703,0.0178 -2.35857,-0.0852 z m 2.60662,-142.11562 c 0.63634,-0.63634 0.80863,-1.6468 0.69259,-4.06196 l -0.15446,-3.21492 -7.86187,-1.69379 c -4.32403,-0.93158 -8.77919,-1.75707 -9.90035,-1.83443 -2.00835,-0.13857 -2.05229,-0.10193 -2.9731,2.47997 -0.51404,1.44135 -0.9529,3.24339 -0.97524,4.00455 -0.038,1.2962 0.23065,1.45712 4.23838,2.53853 9.84165,2.65556 15.46841,3.24769 16.93405,1.78205 z m -35.5163,-7.89561 c 0.59278,-0.90469 0.92366,-2.43379 0.9293,-4.29456 l 0.009,-2.88963 -2.35857,-0.71338 c -3.97774,-1.20312 -14.30108,-3.26796 -16.36046,-3.27235 -2.1631,-0.005 -2.70908,0.62338 -3.30538,3.80195 -0.52822,2.81566 0.0192,4.34751 1.8204,5.09358 3.27998,1.35861 12.9855,3.6317 15.60583,3.65497 2.40635,0.0214 2.85154,-0.14655 3.66011,-1.38058 z"
       id="path3"
       transform="translate(-25.682119,7.3377483)" />
    <path
       style="display:none;opacity:0;fill:#ff0000;fill-opacity:1;fill-rule:evenodd;stroke-width:0"
       d="m 348.28098,281.73403 c -0.28826,-0.103 -1.16974,-0.32958 -1.95883,-0.50351 -2.00684,-0.44233 -2.80199,-1.92967 -4.01715,-7.51417 -2.51984,-11.58036 -11.69475,-25.53086 -21.27851,-32.35409 -3.95327,-2.81456 -9.0034,-5.34269 -15.72375,-7.87144 -4.96546,-1.86841 -5.64114,-1.98569 -12.84106,-2.2288 -12.36939,-0.41766 -18.77959,0.8788 -28.5648,5.77719 -2.30615,1.15444 -5.247,2.82252 -6.53523,3.70683 -3.25998,2.23784 -10.06418,8.82873 -13.25765,12.84201 l -2.67368,3.36006 -2.65603,-0.30196 c -1.46082,-0.16607 -3.55586,-0.56374 -4.65566,-0.88371 -1.89296,-0.55073 -1.98156,-0.67081 -1.66096,-2.2511 1.75709,-8.66071 29.44941,-130.93232 29.83869,-131.74853 0.0252,-0.0529 2.40046,0.23731 5.27827,0.64496 7.05305,0.99911 10.42723,0.97858 11.29641,-0.0687 0.37899,-0.45666 0.79,-2.22558 0.91336,-3.93094 0.19951,-2.75823 0.11603,-3.10117 -0.75594,-3.10539 -2.11529,-0.0102 -12.51096,-2.65332 -13.21839,-3.36075 -0.65086,-0.65086 -0.63249,-1.39734 0.13875,-5.63701 1.12516,-6.18529 5.85797,-26.341938 7.23161,-30.798836 l 1.04008,-3.374661 1.91387,3.627768 c 2.5354,4.805896 8.48877,10.754306 13.96958,13.957954 4.62414,2.702904 5.75129,3.77681 9.32042,8.880232 4.96633,7.101223 11.98431,11.606803 20.79643,13.351413 5.62905,1.11443 12.92798,0.76853 18.1018,-0.85785 3.2979,-1.03669 4.33301,-1.11746 10.23701,-0.79877 8.80848,0.47547 13.02154,-0.36558 20.68636,-4.12962 3.17095,-1.55719 7.85078,-3.4528 10.39962,-4.21247 2.54883,-0.75967 6.74586,-2.310455 9.32672,-3.446186 4.33567,-1.907945 6.21784,-2.45473 6.21784,-1.806328 0,1.434784 -8.70844,42.077684 -9.12003,42.563804 -0.0495,0.0584 -3.14759,-0.46531 -6.88468,-1.1639 -3.7371,-0.69859 -7.89083,-1.27708 -9.23051,-1.28554 l -2.43579,-0.0154 -0.57793,3.31872 c -0.99085,5.68991 -1.45802,5.19662 6.14174,6.48531 7.72074,1.3092 9.43141,1.94476 9.863,3.66436 0.34073,1.35757 -1.76475,11.00798 -15.01466,68.81922 -15.35294,66.98709 -14.13247,62.55919 -17.29175,62.73502 -1.00894,0.0562 -2.0703,0.0178 -2.35857,-0.0852 z m 2.60662,-142.11562 c 0.63634,-0.63634 0.80863,-1.6468 0.69259,-4.06196 l -0.15446,-3.21492 -7.86187,-1.69379 c -4.32403,-0.93158 -8.77919,-1.75707 -9.90035,-1.83443 -2.00835,-0.13857 -2.05229,-0.10193 -2.9731,2.47997 -0.51404,1.44135 -0.9529,3.24339 -0.97524,4.00455 -0.038,1.2962 0.23065,1.45712 4.23838,2.53853 9.84165,2.65556 15.46841,3.24769 16.93405,1.78205 z m -35.5163,-7.89561 c 0.59278,-0.90469 0.92366,-2.43379 0.9293,-4.29456 l 0.009,-2.88963 -2.35857,-0.71338 c -3.97774,-1.20312 -14.30108,-3.26796 -16.36046,-3.27235 -2.1631,-0.005 -2.70908,0.62338 -3.30538,3.80195 -0.52822,2.81566 0.0192,4.34751 1.8204,5.09358 3.27998,1.35861 12.9855,3.6317 15.60583,3.65497 2.40635,0.0214 2.85154,-0.14655 3.66011,-1.38058 z"
       id="path4"
       transform="translate(-25.682119,7.3377483)" />
    <path
       style="display:none;opacity:1;fill:#ff5855;fill-opacity:1;fill-rule:evenodd;stroke-width:0"
       d="m 348.28098,281.73403 c -0.28826,-0.103 -1.16974,-0.32958 -1.95883,-0.50351 -2.00684,-0.44233 -2.80199,-1.92967 -4.01715,-7.51417 -2.51984,-11.58036 -11.69475,-25.53086 -21.27851,-32.35409 -3.95327,-2.81456 -9.0034,-5.34269 -15.72375,-7.87144 -4.96546,-1.86841 -5.64114,-1.98569 -12.84106,-2.2288 -12.36939,-0.41766 -18.77959,0.8788 -28.5648,5.77719 -2.30615,1.15444 -5.247,2.82252 -6.53523,3.70683 -3.25998,2.23784 -10.06418,8.82873 -13.25765,12.84201 l -2.67368,3.36006 -2.65603,-0.30196 c -1.46082,-0.16607 -3.55586,-0.56374 -4.65566,-0.88371 -1.89296,-0.55073 -1.98156,-0.67081 -1.66096,-2.2511 1.75709,-8.66071 29.44941,-130.93232 29.83869,-131.74853 0.0252,-0.0529 2.40046,0.23731 5.27827,0.64496 7.05305,0.99911 10.42723,0.97858 11.29641,-0.0687 0.37899,-0.45666 0.79,-2.22558 0.91336,-3.93094 0.19951,-2.75823 0.11603,-3.10117 -0.75594,-3.10539 -2.11529,-0.0102 -12.51096,-2.65332 -13.21839,-3.36075 -0.65086,-0.65086 -0.63249,-1.39734 0.13875,-5.63701 1.12516,-6.18529 5.85797,-26.341938 7.23161,-30.798836 l 1.04008,-3.374661 1.91387,3.627768 c 2.5354,4.805896 8.48877,10.754306 13.96958,13.957954 4.62414,2.702904 5.75129,3.77681 9.32042,8.880232 4.96633,7.101223 11.98431,11.606803 20.79643,13.351413 5.62905,1.11443 12.92798,0.76853 18.1018,-0.85785 3.2979,-1.03669 4.33301,-1.11746 10.23701,-0.79877 8.80848,0.47547 13.02154,-0.36558 20.68636,-4.12962 3.17095,-1.55719 7.85078,-3.4528 10.39962,-4.21247 2.54883,-0.75967 6.74586,-2.310455 9.32672,-3.446186 4.33567,-1.907945 6.21784,-2.45473 6.21784,-1.806328 0,1.434784 -8.70844,42.077684 -9.12003,42.563804 -0.0495,0.0584 -3.14759,-0.46531 -6.88468,-1.1639 -3.7371,-0.69859 -7.89083,-1.27708 -9.23051,-1.28554 l -2.43579,-0.0154 -0.57793,3.31872 c -0.99085,5.68991 -1.45802,5.19662 6.14174,6.48531 7.72074,1.3092 9.43141,1.94476 9.863,3.66436 0.34073,1.35757 -1.76475,11.00798 -15.01466,68.81922 -15.35294,66.98709 -14.13247,62.55919 -17.29175,62.73502 -1.00894,0.0562 -2.0703,0.0178 -2.35857,-0.0852 z m 2.60662,-142.11562 c 0.63634,-0.63634 0.80863,-1.6468 0.69259,-4.06196 l -0.15446,-3.21492 -7.86187,-1.69379 c -4.32403,-0.93158 -8.77919,-1.75707 -9.90035,-1.83443 -2.00835,-0.13857 -2.05229,-0.10193 -2.9731,2.47997 -0.51404,1.44135 -0.9529,3.24339 -0.97524,4.00455 -0.038,1.2962 0.23065,1.45712 4.23838,2.53853 9.84165,2.65556 15.46841,3.24769 16.93405,1.78205 z m -35.5163,-7.89561 c 0.59278,-0.90469 0.92366,-2.43379 0.9293,-4.29456 l 0.009,-2.88963 -2.35857,-0.71338 c -3.97774,-1.20312 -14.30108,-3.26796 -16.36046,-3.27235 -2.1631,-0.005 -2.70908,0.62338 -3.30538,3.80195 -0.52822,2.81566 0.0192,4.34751 1.8204,5.09358 3.27998,1.35861 12.9855,3.6317 15.60583,3.65497 2.40635,0.0214 2.85154,-0.14655 3.66011,-1.38058 z"
       id="path5"
       transform="translate(-25.682119,7.3377483)" />
    <path
       style="display:inline;opacity:1;fill:#ff5855;fill-opacity:1;fill-rule:evenodd;stroke-width:0"
       d="m 346.56467,281.09519 c -1.68153,-0.33927 -2.50485,-1.84274 -3.96557,-7.24157 -2.1273,-7.86245 -4.37055,-12.84497 -8.51828,-18.92003 -6.06082,-8.87712 -11.79642,-13.90292 -20.85003,-18.26977 -10.83993,-5.22846 -11.00661,-5.26466 -24.17592,-5.24883 l -11.53075,0.0139 -4.97805,1.72307 c -11.38638,3.94122 -19.89318,9.84534 -27.94383,19.39434 -3.33871,3.96009 -3.67951,4.2174 -5.24125,3.95723 -4.75417,-0.79197 -6.64954,-1.4009 -6.64954,-2.1363 0,-1.17469 19.95307,-89.93933 28.1955,-125.43248 l 1.52144,-6.55156 1.7825,0.0912 c 0.98037,0.0502 4.66407,0.26253 8.18601,0.47195 l 6.40352,0.38075 0.54114,-1.42328 c 0.29762,-0.78281 0.54113,-2.58272 0.54113,-3.99981 0,-2.25278 -0.14818,-2.60609 -1.17928,-2.81192 -3.11824,-0.62245 -10.37547,-2.44026 -11.59829,-2.90518 -1.04863,-0.39868 -1.3738,-0.88391 -1.3738,-2.04997 0,-2.60698 4.27771,-21.912758 7.19598,-32.476274 l 1.35065,-4.889053 1.62309,3.048697 c 2.36537,4.442959 8.07772,10.188462 13.99933,14.080592 4.12289,2.709876 5.70604,4.142759 8.21686,7.436953 5.84914,7.674075 10.78063,11.457105 18.03187,13.832575 3.32879,1.09049 4.8222,1.2539 11.42895,1.25049 5.73352,-0.003 8.32753,-0.22819 10.56317,-0.91721 2.2646,-0.69796 4.85991,-0.91514 11.00662,-0.92106 9.63086,-0.009 12.49218,-0.5923 20.2316,-4.12245 3.09755,-1.41287 7.75462,-3.31028 10.34904,-4.21648 2.59441,-0.90619 6.89843,-2.504706 9.56448,-3.552247 2.66605,-1.047541 5.00567,-1.746306 5.19917,-1.552812 0.37512,0.375123 -0.77314,6.243359 -5.40122,27.603109 -1.59273,7.35085 -3.08237,13.55902 -3.31032,13.79593 -0.22794,0.2369 -3.0897,-0.0579 -6.35945,-0.65516 -6.19044,-1.13072 -11.7439,-1.41571 -12.23095,-0.62765 -0.62011,1.00338 -0.95638,7.78587 -0.40296,8.12789 0.30846,0.19064 3.4268,0.91807 6.92963,1.6165 7.17032,1.42969 8.8943,2.26262 8.8943,4.29722 0,3.60742 -27.04319,121.54021 -29.18566,127.27592 -0.9665,2.58744 -1.00859,2.62153 -3.32377,2.692 -1.28968,0.0393 -2.88136,-0.0369 -3.53706,-0.16918 z m 4.49418,-141.25867 c 0.36438,-0.36439 0.62895,-2.11046 0.62895,-4.15099 v -3.52204 l -3.53785,-0.79909 c -1.94581,-0.4395 -6.32266,-1.32094 -9.72632,-1.95875 -5.30754,-0.99457 -6.28633,-1.05467 -6.87582,-0.4222 -0.96072,1.03078 -1.87326,3.97401 -1.87326,6.04183 0,1.69426 0.0952,1.77 3.53784,2.81314 8.134,2.46467 16.44894,3.39561 17.84646,1.9981 z m -35.24686,-8.5264 c 0.41769,-0.99969 0.75944,-2.99537 0.75944,-4.43486 0,-2.58163 -0.0268,-2.62441 -1.96547,-3.14233 -6.49328,-1.73468 -11.35242,-2.71866 -14.81665,-3.00041 -4.78334,-0.38902 -5.32934,0.0482 -5.65328,4.52648 -0.20214,2.79461 -0.11086,3.12161 1.0912,3.90923 2.04421,1.33941 12.83196,3.90901 16.52279,3.93565 3.28104,0.0237 3.30746,0.012 4.06197,-1.79376 z"
       id="path6"
       transform="translate(-25.682119,7.3377483)"
       clip-path="none" />
    <path
       style="display:none;opacity:1;fill:#ff5855;fill-opacity:1;fill-rule:evenodd;stroke-width:0"
       d=""
       id="path7"
       transform="translate(-25.682119,7.3377483)" />
    <path
       style="display:inline;opacity:1;fill:#ff5855;fill-opacity:1;fill-rule:evenodd;stroke-width:0"
       d="m 357.45317,299.5107 c -3.2659,-0.59719 -20.326,-4.6862 -27.31461,-6.54683 l -1.89455,-0.5044 -0.36724,-6.68148 c -0.46327,-8.42847 -1.34175,-12.73222 -3.46254,-16.96325 -4.66399,-9.30484 -10.95091,-15.33996 -20.88146,-20.04514 l -3.47128,-1.64472 h -11.26868 c -11.12479,0 -11.30693,0.0179 -14.26335,1.40362 -4.62161,2.16619 -10.21857,5.97588 -13.28628,9.04358 -2.58482,2.58483 -5.2966,6.44821 -9.56444,13.62612 -1.32804,2.23358 -2.0274,2.91911 -2.978,2.91911 -1.28225,0 -21.01234,-4.30917 -29.35448,-6.4112 l -4.71712,-1.18861 -0.15611,-1.8554 c -0.0862,-1.02462 1.95248,-10.88143 4.553,-22.01324 2.59001,-11.08682 9.80845,-42.56419 16.04098,-69.94971 20.91139,-91.88404 27.48315,-120.003923 28.38745,-121.467123 0.49763,-0.805182 5.37044,-0.104218 13.38422,1.925347 10.20817,2.585314 10.14759,2.543965 10.58013,7.221272 0.60682,6.561896 4.41939,12.959404 9.4541,15.864021 1.17718,0.67914 3.76029,1.480308 5.74024,1.780372 4.24894,0.643931 5.25789,1.413726 6.06759,4.629348 0.88344,3.508432 2.43436,6.263811 5.17476,9.193525 2.94083,3.143976 5.12596,4.318669 9.5135,5.11428 4.25871,0.772251 8.93276,0.01971 13.17344,-2.120983 3.64676,-1.840876 4.25221,-1.872451 8.4793,-0.442211 2.5806,0.873148 4.13232,1.054992 7.45224,0.873319 5.10248,-0.279217 8.6171,-1.689808 13.02547,-5.227759 l 3.13213,-2.513703 h 4.20369 c 5.25013,0 7.37029,-0.946565 12.22834,-5.459472 l 3.53999,-3.288479 9.45175,1.983976 c 12.45388,2.61414 14.01344,3.108151 14.80343,4.689174 0.86517,1.731499 0.70154,2.667491 -4.07363,23.301856 -3.79586,16.40265 -18.616,81.26989 -35.91223,157.18671 -3.86856,16.97994 -7.03375,31.29136 -7.03375,31.80315 0,1.37768 -1.45467,2.58424 -3.05116,2.53075 -0.77214,-0.0259 -3.17283,-0.37049 -5.33484,-0.76582 z m 0.72394,-9.12185 c 1.55183,-0.59 1.60655,-0.75945 4.74693,-14.69916 1.26636,-5.62124 4.78398,-21.06982 7.81692,-34.33018 3.03294,-13.26036 8.84291,-38.73283 12.91103,-56.60549 4.06811,-17.87266 10.34149,-45.3184 13.94083,-60.99054 7.29762,-31.775116 7.45913,-32.614773 6.4325,-33.440504 -0.60612,-0.487509 -6.1956,-1.838008 -11.01222,-2.660713 -1.05654,-0.180463 -2.06445,0.298431 -4.193,1.992257 -3.64658,2.901815 -8.27113,4.98106 -14.02528,6.305921 -3.08411,0.710096 -5.57914,1.674755 -7.45125,2.880892 -1.54801,0.997328 -4.11181,2.298767 -5.69733,2.892087 -5.67958,2.12536 -8.70048,2.32509 -18.6065,1.23017 -1.95403,-0.21598 -3.75385,0.0549 -7.07569,1.06477 -8.40841,2.55632 -12.70452,2.32195 -19.77501,-1.07882 -5.10529,-2.45555 -10.0403,-7.119407 -13.04447,-12.327756 -2.73088,-4.73453 -2.78063,-4.781082 -6.35805,-5.948121 -7.25572,-2.366987 -12.82168,-8.830894 -16.61465,-19.295066 -0.98651,-2.721626 -1.78032,-3.32541 -5.76832,-4.387455 -3.29812,-0.878325 -4.04762,-0.885882 -5.18761,-0.05231 -1.13902,0.832877 -1.56952,2.532986 -8.98922,35.500143 -3.34125,14.845845 -9.11728,40.200385 -12.83561,56.343425 -11.13853,48.35758 -21.86322,95.62486 -22.7734,100.36992 -0.47001,2.45028 -0.96602,4.9763 -1.10226,5.61337 -0.16112,0.75345 0.0746,1.3307 0.67425,1.6515 0.50706,0.27126 5.34412,1.48895 10.74901,2.70599 7.89559,1.77788 9.97922,2.08654 10.60117,1.57036 0.42575,-0.35334 2.12486,-2.6517 3.77581,-5.10746 3.68423,-5.48027 11.57126,-12.75591 16.75423,-15.45547 8.20783,-4.27507 17.21671,-6.49243 24.34683,-5.99249 5.73859,0.40237 15.99352,3.03454 19.86792,5.09957 4.48181,2.38879 10.98065,7.75232 14.59278,12.04353 5.81136,6.9039 9.22167,14.90981 10.91306,25.61902 l 0.90248,5.71418 5.00781,1.15872 c 6.31749,1.46176 13.72708,3.03108 14.53897,3.07929 0.34157,0.0203 1.21337,-0.18833 1.93734,-0.46358 z"
       id="path8"
       transform="translate(-25.682119,7.3377483)"
       clip-path="none" />
    <path
       style="opacity:1;fill:none;fill-opacity:1;fill-rule:evenodd;stroke-width:0"
       d="m 216.22961,208.88176 c -0.14627,-0.58279 -0.0766,-7.41823 0.15488,-15.18987 0.23145,-7.77164 0.59208,-23.21952 0.80139,-34.32862 0.20932,-11.1091 0.47903,-24.57622 0.59936,-29.92694 l 0.21879,-9.72857 h 6.20309 c 3.67248,0 6.69551,-0.17166 7.4101,-0.42076 1.70863,-0.59564 2.23911,-2.11751 2.23911,-6.42366 v -3.53272 h -8.18673 -8.18674 l 0.21057,-3.05755 c 0.11581,-1.68166 0.302,-5.64258 0.41374,-8.802046 0.33929,-9.593352 0.98682,-20.116927 1.2873,-20.921193 0.2533,-0.678 0.67954,-0.371344 3.96671,2.853845 2.0256,1.987409 3.85683,3.61347 4.06939,3.61347 0.21256,0 2.17229,0.74819 4.35495,1.662645 2.18267,0.914454 5.373,2.091049 7.08964,2.614655 2.03412,0.620445 3.31711,1.231788 3.68381,1.755329 1.04713,1.494981 0.46025,7.939848 -0.98011,10.76319 -0.42403,0.831165 -0.92341,2.770635 -1.10973,4.309935 -0.18633,1.53931 -0.98949,5.38376 -1.78481,8.54323 -0.79532,3.15947 -1.89446,7.91257 -2.44254,10.56245 -0.54807,2.64987 -1.30901,5.43672 -1.69097,6.19299 -0.38196,0.75626 -0.69448,2.05054 -0.69448,2.87617 0,0.82562 -0.34711,3.04204 -0.77136,4.92537 -0.42424,1.88333 -1.24595,5.6168 -1.826,8.29658 -0.58006,2.67979 -1.41361,5.57597 -1.85234,6.43596 -0.49784,0.97584 -0.71417,1.89638 -0.5755,2.44888 0.12668,0.50475 -0.007,1.24301 -0.31062,1.71752 -0.29305,0.45773 -0.64092,1.99967 -0.77305,3.42653 -0.3696,3.99127 -1.25352,8.53131 -2.00135,10.27943 -0.37179,0.86909 -1.05023,3.41469 -1.50764,5.65689 -0.45741,2.24221 -1.21995,5.26928 -1.69453,6.72683 -0.47458,1.45756 -1.13363,4.5429 -1.46456,6.85633 -0.33094,2.31343 -1.00171,5.62382 -1.49062,7.35644 -0.48891,1.73261 -1.22967,5.20535 -1.64615,7.71721 -0.86284,5.20399 -1.29584,6.40214 -1.713,4.74005 z"
       id="path9"
       transform="translate(-25.682119,7.3377483)"
       clip-path="none" />
    <path
       style="opacity:1;fill:none;fill-opacity:1;fill-rule:evenodd;stroke-width:0"
       d="m 216.22961,208.88176 c -0.14627,-0.58279 -0.0766,-7.41823 0.15488,-15.18987 0.23145,-7.77164 0.59208,-23.21952 0.80139,-34.32862 0.20932,-11.1091 0.47903,-24.57622 0.59936,-29.92694 l 0.21879,-9.72857 h 6.20309 c 3.67248,0 6.69551,-0.17166 7.4101,-0.42076 1.70863,-0.59564 2.23911,-2.11751 2.23911,-6.42366 v -3.53272 h -8.18673 -8.18674 l 0.21057,-3.05755 c 0.11581,-1.68166 0.302,-5.64258 0.41374,-8.802046 0.33929,-9.593352 0.98682,-20.116927 1.2873,-20.921193 0.2533,-0.678 0.67954,-0.371344 3.96671,2.853845 2.0256,1.987409 3.85683,3.61347 4.06939,3.61347 0.21256,0 2.17229,0.74819 4.35495,1.662645 2.18267,0.914454 5.373,2.091049 7.08964,2.614655 2.03412,0.620445 3.31711,1.231788 3.68381,1.755329 1.04713,1.494981 0.46025,7.939848 -0.98011,10.76319 -0.42403,0.831165 -0.92341,2.770635 -1.10973,4.309935 -0.18633,1.53931 -0.98949,5.38376 -1.78481,8.54323 -0.79532,3.15947 -1.89446,7.91257 -2.44254,10.56245 -0.54807,2.64987 -1.30901,5.43672 -1.69097,6.19299 -0.38196,0.75626 -0.69448,2.05054 -0.69448,2.87617 0,0.82562 -0.34711,3.04204 -0.77136,4.92537 -0.42424,1.88333 -1.24595,5.6168 -1.826,8.29658 -0.58006,2.67979 -1.41361,5.57597 -1.85234,6.43596 -0.49784,0.97584 -0.71417,1.89638 -0.5755,2.44888 0.12668,0.50475 -0.007,1.24301 -0.31062,1.71752 -0.29305,0.45773 -0.64092,1.99967 -0.77305,3.42653 -0.3696,3.99127 -1.25352,8.53131 -2.00135,10.27943 -0.37179,0.86909 -1.05023,3.41469 -1.50764,5.65689 -0.45741,2.24221 -1.21995,5.26928 -1.69453,6.72683 -0.47458,1.45756 -1.13363,4.5429 -1.46456,6.85633 -0.33094,2.31343 -1.00171,5.62382 -1.49062,7.35644 -0.48891,1.73261 -1.22967,5.20535 -1.64615,7.71721 -0.86284,5.20399 -1.29584,6.40214 -1.713,4.74005 z"
       id="path10"
       transform="translate(-25.682119,7.3377483)"
       clip-path="none" />
    <path
       style="opacity:1;fill:none;fill-opacity:1;fill-rule:evenodd;stroke-width:0"
       d="m 216.22961,208.88176 c -0.14627,-0.58279 -0.0766,-7.41823 0.15488,-15.18987 0.23145,-7.77164 0.59208,-23.21952 0.80139,-34.32862 0.20932,-11.1091 0.47903,-24.57622 0.59936,-29.92694 l 0.21879,-9.72857 h 6.20309 c 3.67248,0 6.69551,-0.17166 7.4101,-0.42076 1.70863,-0.59564 2.23911,-2.11751 2.23911,-6.42366 v -3.53272 h -8.18673 -8.18674 l 0.21057,-3.05755 c 0.11581,-1.68166 0.302,-5.64258 0.41374,-8.802046 0.33929,-9.593352 0.98682,-20.116927 1.2873,-20.921193 0.2533,-0.678 0.67954,-0.371344 3.96671,2.853845 2.0256,1.987409 3.85683,3.61347 4.06939,3.61347 0.21256,0 2.17229,0.74819 4.35495,1.662645 2.18267,0.914454 5.373,2.091049 7.08964,2.614655 2.03412,0.620445 3.31711,1.231788 3.68381,1.755329 1.04713,1.494981 0.46025,7.939848 -0.98011,10.76319 -0.42403,0.831165 -0.92341,2.770635 -1.10973,4.309935 -0.18633,1.53931 -0.98949,5.38376 -1.78481,8.54323 -0.79532,3.15947 -1.89446,7.91257 -2.44254,10.56245 -0.54807,2.64987 -1.30901,5.43672 -1.69097,6.19299 -0.38196,0.75626 -0.69448,2.05054 -0.69448,2.87617 0,0.82562 -0.34711,3.04204 -0.77136,4.92537 -0.42424,1.88333 -1.24595,5.6168 -1.826,8.29658 -0.58006,2.67979 -1.41361,5.57597 -1.85234,6.43596 -0.49784,0.97584 -0.71417,1.89638 -0.5755,2.44888 0.12668,0.50475 -0.007,1.24301 -0.31062,1.71752 -0.29305,0.45773 -0.64092,1.99967 -0.77305,3.42653 -0.3696,3.99127 -1.25352,8.53131 -2.00135,10.27943 -0.37179,0.86909 -1.05023,3.41469 -1.50764,5.65689 -0.45741,2.24221 -1.21995,5.26928 -1.69453,6.72683 -0.47458,1.45756 -1.13363,4.5429 -1.46456,6.85633 -0.33094,2.31343 -1.00171,5.62382 -1.49062,7.35644 -0.48891,1.73261 -1.22967,5.20535 -1.64615,7.71721 -0.86284,5.20399 -1.29584,6.40214 -1.713,4.74005 z"
       id="path11"
       transform="translate(-25.682119,7.3377483)"
       clip-path="none" />
    <path
       style="opacity:1;fill:#376bbf;fill-opacity:1;fill-rule:evenodd;stroke-width:0"
       d="m 216.22961,208.88176 c -0.14627,-0.58279 -0.0766,-7.41823 0.15488,-15.18987 0.23145,-7.77164 0.59208,-23.21952 0.80139,-34.32862 0.20932,-11.1091 0.47903,-24.57622 0.59936,-29.92694 l 0.21879,-9.72857 h 6.20309 c 3.67248,0 6.69551,-0.17166 7.4101,-0.42076 1.70863,-0.59564 2.23911,-2.11751 2.23911,-6.42366 v -3.53272 h -8.18673 -8.18674 l 0.21057,-3.05755 c 0.11581,-1.68166 0.302,-5.64258 0.41374,-8.802046 0.33929,-9.593352 0.98682,-20.116927 1.2873,-20.921193 0.2533,-0.678 0.67954,-0.371344 3.96671,2.853845 2.0256,1.987409 3.85683,3.61347 4.06939,3.61347 0.21256,0 2.17229,0.74819 4.35495,1.662645 2.18267,0.914454 5.373,2.091049 7.08964,2.614655 2.03412,0.620445 3.31711,1.231788 3.68381,1.755329 1.04713,1.494981 0.46025,7.939848 -0.98011,10.76319 -0.42403,0.831165 -0.92341,2.770635 -1.10973,4.309935 -0.18633,1.53931 -0.98949,5.38376 -1.78481,8.54323 -0.79532,3.15947 -1.89446,7.91257 -2.44254,10.56245 -0.54807,2.64987 -1.30901,5.43672 -1.69097,6.19299 -0.38196,0.75626 -0.69448,2.05054 -0.69448,2.87617 0,0.82562 -0.34711,3.04204 -0.77136,4.92537 -0.42424,1.88333 -1.24595,5.6168 -1.826,8.29658 -0.58006,2.67979 -1.41361,5.57597 -1.85234,6.43596 -0.49784,0.97584 -0.71417,1.89638 -0.5755,2.44888 0.12668,0.50475 -0.007,1.24301 -0.31062,1.71752 -0.29305,0.45773 -0.64092,1.99967 -0.77305,3.42653 -0.3696,3.99127 -1.25352,8.53131 -2.00135,10.27943 -0.37179,0.86909 -1.05023,3.41469 -1.50764,5.65689 -0.45741,2.24221 -1.21995,5.26928 -1.69453,6.72683 -0.47458,1.45756 -1.13363,4.5429 -1.46456,6.85633 -0.33094,2.31343 -1.00171,5.62382 -1.49062,7.35644 -0.48891,1.73261 -1.22967,5.20535 -1.64615,7.71721 -0.86284,5.20399 -1.29584,6.40214 -1.713,4.74005 z"
       id="path12"
       transform="translate(-25.682119,7.3377483)"
       clip-path="none" />
    <path
       style="opacity:1;fill:#376bbf;fill-opacity:1;fill-rule:evenodd;stroke-width:0"
       d="m 202.43531,254.70327 c -0.68279,-1.66275 -0.01,-76.96618 1.03296,-115.53837 0.33722,-12.47666 0.8431,-38.5828 1.334,-68.841224 l 0.233,-14.361225 h 10.30967 c 5.80175,0 10.72535,0.15804 11.26033,0.361439 0.89275,0.339422 0.95066,0.516059 0.95066,2.899662 0,2.299225 0.12039,2.707558 1.2786,4.336604 0.70323,0.98911 1.18534,1.949284 1.07135,2.13372 -0.11399,0.184436 0.26758,0.830952 0.84792,1.436703 0.58035,0.605751 1.0572,1.378519 1.05967,1.717262 0.005,0.707448 2.28035,2.109783 4.45184,2.743937 0.81535,0.238111 1.85093,0.760863 2.3013,1.161672 0.60105,0.534909 1.64961,0.804462 3.94221,1.013423 3.70357,0.337563 4.68956,0.770837 4.68956,2.060738 0,1.502425 -0.6192,2.263667 -2.39197,2.940695 -2.41015,0.920442 -5.3521,0.613844 -8.41154,-0.876619 -1.35481,-0.660017 -2.62794,-1.152694 -2.82917,-1.094837 -0.20124,0.05786 -1.28429,-0.853766 -2.40678,-2.025827 -1.15913,-1.210325 -2.36267,-2.13102 -2.78568,-2.13102 -0.4785,0 -0.87303,-0.364415 -1.10344,-1.019184 -0.19724,-0.560551 -1.04744,-1.850004 -1.88931,-2.865451 -1.08576,-1.309608 -1.53069,-2.188779 -1.53069,-3.024607 0,-1.510529 -1.55126,-2.868891 -4.16157,-3.644069 -3.57665,-1.06215 -6.68015,-0.599712 -7.32302,1.091166 -1.39519,3.669618 -1.80015,16.399952 -3.3368,104.894802 -1.24263,71.56177 -1.59511,83.18274 -2.5788,85.02079 -0.54566,1.01958 -2.21601,2.2584 -3.04509,2.2584 -0.38658,0 -0.82273,-0.29186 -0.96921,-0.64858 z"
       id="path13"
       transform="translate(-25.682119,7.3377483)"
       clip-path="none" />
    <path
       style="opacity:1;fill:#fd924e;fill-opacity:1;fill-rule:evenodd;stroke-width:0"
       d="m 192.66316,206.24572 c -0.13229,-0.20384 -0.91489,-3.45596 -1.73913,-7.22694 -3.91262,-17.90071 -12.68914,-62.89848 -12.77115,-65.47852 -0.0961,-3.02301 0.43025,-3.53559 4.42479,-4.30912 5.60087,-1.08459 7.27228,-2.35249 6.4371,-4.88308 -0.84208,-2.55156 -4.21496,-3.19836 -9.72624,-1.86518 -1.57706,0.3815 -2.97575,0.58527 -3.10819,0.45283 -0.68612,-0.68612 -5.6987,-26.263657 -5.6987,-29.078574 v -1.344784 l 1.15958,1.186048 c 2.17724,2.226935 7.84293,4.420715 14.03552,5.434611 4.5584,0.746336 6.52513,1.472749 6.8312,2.523119 0.64953,2.2291 0.92005,17.90358 0.89038,51.59204 -0.0323,36.66378 -0.26883,53.7161 -0.73516,52.99755 z"
       id="path14"
       transform="translate(-25.682119,7.3377483)"
       clip-path="none" />
    <path
       style="display:inline;opacity:1;fill:#fd924e;fill-opacity:1;fill-rule:evenodd;stroke-width:0"
       d="m 188.26401,245.68988 c -0.742,-2.75559 -9.22474,-44.66574 -13.72211,-67.796 -2.43745,-12.53596 -5.69311,-28.87996 -7.23481,-36.32 -1.5417,-7.44004 -3.70906,-18.53061 -4.81636,-24.64571 -1.10731,-6.1151 -3.12145,-16.60966 -4.47587,-23.321235 l -2.46258,-12.202865 0.83031,-0.672338 c 1.69432,-1.371977 11.62819,-3.644382 15.9315,-3.644382 1.98025,0 2.42457,0.352514 3.73703,2.964898 1.26775,2.523395 2.46223,3.923558 4.37284,5.125803 2.36085,1.485562 3.69982,1.858633 8.79964,2.451793 5.02777,0.58478 5.52858,0.906706 5.2141,3.351678 -0.29808,2.317556 -1.16891,2.783379 -5.20333,2.783379 -6.38731,0 -10.24354,-1.663852 -15.64795,-6.751655 -3.18283,-2.996358 -3.57757,-3.254876 -4.97005,-3.254876 -2.09918,0 -4.60406,0.683531 -5.4736,1.493635 -0.87662,0.816691 -1.08643,-0.51417 4.2342,26.858205 1.94146,9.988 4.53021,23.41343 5.75278,29.83428 1.57689,8.28166 2.49923,12.25382 3.17386,13.66849 0.62717,1.31514 1.05903,3.05992 1.26824,5.12395 0.61371,6.05478 3.82232,23.58409 6.56626,35.87287 3.58493,16.05512 8.20965,42.17185 8.20965,46.36151 0,2.06217 -0.13055,2.53825 -0.90968,3.31738 -0.50033,0.50033 -1.32778,0.90969 -1.83878,0.90969 -0.77301,0 -0.99733,-0.25342 -1.33529,-1.5085 z"
       id="path15"
       transform="translate(-25.682119,7.3377483)" />
  </g>
</svg>
